<svg xmlns="http://www.w3.org/2000/svg" version="1.1" width="405px" height="291px" style="shape-rendering:geometricPrecision; text-rendering:geometricPrecision; image-rendering:optimizeQuality; fill-rule:evenodd; clip-rule:evenodd" xmlns:xlink="http://www.w3.org/1999/xlink">
<g><path style="opacity:0.935" fill="#fdfdfd" d="M 337.5,0.5 C 356.624,-0.887161 373.957,3.94617 389.5,15C 401.397,24.6877 405.23,36.8544 401,51.5C 378.254,25.9386 350.754,19.1053 318.5,31C 307.904,35.6005 299.071,42.4338 292,51.5C 287.99,32.0223 294.823,17.8556 312.5,9C 320.578,5.03018 328.912,2.19685 337.5,0.5 Z"/></g>
<g><path style="opacity:0.935" fill="#fefefe" d="M 107.5,21.5 C 123.779,22.267 130.612,30.6003 128,46.5C 122.925,57.1469 114.759,60.6469 103.5,57C 92.8638,50.7562 90.0305,41.9229 95,30.5C 98.2356,26.0818 102.402,23.0818 107.5,21.5 Z"/></g>
<g><path style="opacity:0.967" fill="#fefefe" d="M 20.5,38.5 C 24.1667,38.5 27.8333,38.5 31.5,38.5C 31.5,47.8333 31.5,57.1667 31.5,66.5C 45.8333,66.5 60.1667,66.5 74.5,66.5C 77.731,85.0859 70.0644,94.2526 51.5,94C 44.805,94.6646 38.1384,94.498 31.5,93.5C 31.3334,111.17 31.5001,128.836 32,146.5C 33.3413,157.68 39.6746,163.347 51,163.5C 59.1155,163.012 66.9488,161.345 74.5,158.5C 75.2179,166.499 74.0512,174.166 71,181.5C 67.7364,186.219 63.2364,189.053 57.5,190C 40.6294,193.23 25.4627,189.73 12,179.5C 5.59964,172.028 1.93297,163.361 1,153.5C 0.333333,123.833 0.333333,94.1667 1,64.5C 3.16601,52.5108 9.66601,43.8442 20.5,38.5 Z"/></g>
<g><path style="opacity:0.961" fill="#fdfdfd" d="M 404.5,111.5 C 404.5,121.5 404.5,131.5 404.5,141.5C 393.462,181.964 367.129,198.131 325.5,190C 306.196,183.361 293.696,170.194 288,150.5C 281.95,126.8 285.617,104.8 299,84.5C 315.632,66.2102 336.132,59.7102 360.5,65C 384.273,71.9385 398.94,87.4385 404.5,111.5 Z M 339.5,91.5 C 355.415,90.204 365.582,97.204 370,112.5C 374.156,127.578 372.49,141.911 365,155.5C 352.033,167.413 339.033,167.413 326,155.5C 319.041,143.418 316.708,130.418 319,116.5C 320.314,103.375 327.148,95.0416 339.5,91.5 Z"/></g>
<g><path style="opacity:0.96" fill="#fefefe" d="M 220.5,64.5 C 229.559,64.1541 238.559,64.6541 247.5,66C 266.123,71.0514 273.79,83.2181 270.5,102.5C 268.801,102.66 267.134,102.494 265.5,102C 249.73,92.2851 232.896,89.7851 215,94.5C 195.606,103.274 187.939,118.274 192,139.5C 194.957,156.124 204.791,165.624 221.5,168C 228.054,169.081 234.388,168.414 240.5,166C 241.126,165.25 241.626,164.416 242,163.5C 242.751,152.107 242.251,140.773 240.5,129.5C 248.585,129.099 256.585,129.599 264.5,131C 269.149,133.455 271.983,137.288 273,142.5C 274.039,153.617 273.372,164.617 271,175.5C 266.54,185.288 259.04,191.455 248.5,194C 219.421,200.928 194.255,194.095 173,173.5C 155.814,148.916 154.147,123.25 168,96.5C 180.844,78.1495 198.344,67.4828 220.5,64.5 Z"/></g>
<g><path style="opacity:0.965" fill="#fefefe" d="M 95.5,68.5 C 103.966,67.7435 111.966,69.2435 119.5,73C 122.933,76.1039 125.1,79.9372 126,84.5C 126.039,108.883 126.706,133.216 128,157.5C 129.668,161.165 132.501,163.332 136.5,164C 141.155,164.499 145.821,164.666 150.5,164.5C 153.657,186.448 144.324,194.948 122.5,190C 106.765,186.931 97.9314,177.431 96,161.5C 95.5,130.502 95.3334,99.5018 95.5,68.5 Z"/></g>
<g><path style="opacity:0.955" fill="#fdfdfd" d="M 289.5,290.5 C 279.833,290.5 270.167,290.5 260.5,290.5C 234.752,285.878 213.919,273.211 198,252.5C 191.8,239.864 189.8,226.531 192,212.5C 228.695,258.442 273.529,268.276 326.5,242C 338.954,234.547 349.12,224.713 357,212.5C 361.418,231.397 357.085,248.063 344,262.5C 328.465,277.017 310.299,286.35 289.5,290.5 Z"/></g>
</svg>
